<?xml version="1.0" encoding="UTF-8"?>
<svg id="Isolation_Mode" data-name="Isolation Mode" xmlns="http://www.w3.org/2000/svg" viewBox="0 0 1497.11 786.27">
  <defs>
    <style>
      .cls-1 {
        fill: #8b5a2f;
      }

      .cls-2 {
        fill: #ebccb2;
      }

      .cls-3 {
        fill: #007995;
      }

      .cls-4 {
        fill: #efd6c1;
      }

      .cls-5 {
        fill: #eac5ae;
      }

      .cls-6 {
        fill: #e1b58f;
      }

      .cls-7 {
        fill: #b48a67;
      }

      .cls-8 {
        fill: #4d3114;
      }

      .cls-9 {
        fill: #6b4522;
      }

      .cls-10 {
        fill: #005f74;
      }

      .cls-11 {
        fill: #cc8146;
      }

      .cls-12 {
        fill: #ba8623;
      }

      .cls-13 {
        fill: #d99f70;
      }

      .cls-14 {
        fill: #3c9fbb;
      }
    </style>
  </defs>
  <path class="cls-1" d="M1138.27,482.81l358.84-222.02-27.39-76.8h-114.31l-7.86,5.02,63.65-40.6v-34.02l-19.24,12.27s-85.39-12.28-51.78-126.66h-591.91l-59.03,36.36c-21.59-12.43-44.48-24.59-68.79-36.36H76.04s23.8,56.68-9.34,115.59H0v31.33l59,36.24-27.15,76.14,364.02,225.76L31.84,707.97h0s27.39,76.8,27.39,76.8l588.61,1.5h0s116.64-72.17,116.64-72.17l116.63,72.17h588.61s27.39-76.8,27.39-76.8l-361.12-223.44,2.28-3.21Z"/>
  <path class="cls-6" d="M1391.96,126.66s-85.38-12.29-51.78-126.66h-591.91l-59.03,36.36s-.02-.01-.03-.01c-5.3-3.05-10.68-6.09-16.15-9.11-.4-.22-.81-.44-1.21-.66-4.65-2.57-9.37-5.11-14.14-7.64-1.4-.75-2.82-1.49-4.23-2.24-3.97-2.09-8-4.17-12.06-6.24-1.51-.77-3.02-1.54-4.55-2.32-5.41-2.73-10.87-5.45-16.43-8.13H76.04s23.81,56.68-9.34,115.59H0v31.33l59,36.24.24-.66,587.11,1.49,360.64,222.21,404.22-257.79v-34.02l-19.24,12.27Z"/>
  <polygon class="cls-3" points="1006.98 372.17 588.61 115.59 0 115.59 0 146.92 59 183.16 59.23 182.5 646.34 183.99 1006.98 406.2 1411.2 148.41 1411.2 114.39 1006.98 372.17"/>
  <polygon class="cls-11" points="1497.11 260.79 1469.72 183.99 1058.79 438.26 647.85 183.99 647.84 183.99 59.23 182.5 31.85 259.3 620.46 260.79 620.46 260.79 983.02 485.13 620.46 709.46 647.85 786.27 1058.79 532 1469.72 786.27 1497.11 709.46 1134.54 485.13 1497.11 260.79"/>
  <g>
    <polygon class="cls-9" points="31.85 707.97 620.46 709.46 983.14 485.05 395.86 485.05 31.85 707.97"/>
    <polygon class="cls-9" points="1355.42 183.99 1006.98 406.2 1058.79 438.25 1469.72 183.99 1355.42 183.99"/>
    <path class="cls-9" d="M631.27,72.08l-.54.34.52.41c.02-.25.02-.51.03-.75Z"/>
  </g>
  <path class="cls-5" d="M620.46,0H76.04s23.8,56.68-9.34,115.59h521.91l26.76,16.41s32.47-48.39,5.09-132"/>
  <path class="cls-4" d="M83.91,58.58h547.4c-.59-16.93-3.62-36.52-10.85-58.58H76.04s10.39,24.76,7.87,58.58"/>
  <polygon class="cls-10" points="59.23 182.5 646.52 183.99 588.61 148.41 0 146.92 59 183.16 59.23 182.5"/>
  <polygon class="cls-14" points="588.61 115.59 588.61 148.42 0 146.92 0 115.59 588.61 115.59"/>
  <polygon class="cls-13" points="620.46 260.79 647.84 183.99 59.23 182.5 31.85 259.3 620.46 260.79"/>
  <polygon class="cls-8" points="983.14 485.05 395.86 485.05 620.46 709.46 983.14 485.05"/>
  <polygon class="cls-8" points="764.48 714.1 881.11 786.27 1058.79 532.01 764.48 714.1"/>
  <polygon class="cls-8" points="1355.42 183.99 1006.98 406.2 1058.79 438.25 1355.42 183.99"/>
  <path class="cls-2" d="M748.28,0l-59.03,36.36c247.72,142.57,320.21,319.24,317.73,335.81,2.7-18.02,127.8-229.53,333.2-372.17h-591.91Z"/>
  <path class="cls-12" d="M1254.43,22.61h-515.07l-35,22.64c1.55.92,3.09,1.85,4.62,2.77l31.3-20.23h499.02c-126.43,94.18-216.05,219-256.19,285.77.76,1.35,1.5,2.68,2.22,3.99,39.75-66.39,131.78-194.81,262.46-290.08l6.65-4.86Z"/>
  <path class="cls-7" d="M989.42,241.93c-.57,0-.86,0-1.44,0-.92,0-2.11.65-2.64,1.44-9.37,13.86-15.41,22.96-23.57,35.75.83,1.25,1.65,2.47,2.46,3.7,9.38-14.78,15.67-24.34,25.89-39.47.53-.78.21-1.42-.71-1.42"/>
  <path class="cls-7" d="M1007.18,216.23c-.57,0-.86,0-1.43.01-.92,0-2.08.58-2.58,1.3-5.06,7.16-7.64,10.88-12.91,18.59-.52.77-.2,1.4.73,1.39.57,0,.86,0,1.43,0,.93,0,2.11-.64,2.63-1.41,5.26-7.71,7.84-11.43,12.89-18.59.5-.72.16-1.29-.76-1.29"/>
  <path class="cls-7" d="M1037.07,175.61c-.56,0-.85.01-1.41.02-.91,0-2.03.48-2.48,1.07-2,2.6-3,3.92-5.04,6.62-.46.61-.1,1.1.82,1.09.56,0,.85,0,1.41,0,.92,0,2.04-.52,2.5-1.12,2.04-2.69,3.04-4.01,5.03-6.61.45-.59.08-1.06-.84-1.06"/>
  <path class="cls-7" d="M1052.05,156.61c-.56,0-.85,0-1.41,0-.9.02-1.99.44-2.41.96-4.25,5.27-6.43,8-10.88,13.73-.44.57-.06,1.04.85,1.03.57,0,.85,0,1.41-.01.91,0,2.02-.48,2.46-1.05,4.45-5.73,6.62-8.47,10.86-13.73.42-.53.03-.95-.88-.94"/>
  <path class="cls-7" d="M1027.01,188.91c-.57,0-.86,0-1.42,0-.92,0-2.04.52-2.51,1.15-4.71,6.34-7.12,9.62-12.06,16.46-.48.68-.14,1.23.78,1.23.57,0,.85,0,1.42,0,.91-.02,2.07-.57,2.56-1.25,4.93-6.84,7.33-10.13,12.04-16.47.46-.62.1-1.13-.81-1.12"/>
  <path class="cls-7" d="M962.72,255.61h-1.44c-.92,0-2.13.68-2.68,1.5-2.19,3.28-4.11,6.19-5.93,8.93.84,1.18,1.67,2.35,2.49,3.52,2.48-3.79,5.09-7.75,8.24-12.47.54-.82.23-1.49-.69-1.48"/>
  <path class="cls-7" d="M978.73,229.95c-.92,0-2.1.62-2.62,1.37-4.88,7.04-7.36,10.68-12.43,18.2-.54.8-.22,1.46.7,1.45h1.43c.92-.01,2.12-.67,2.66-1.48,5.06-7.52,7.55-11.17,12.42-18.21.52-.75.19-1.35-.73-1.35-.57,0-.86,0-1.43,0"/>
  <path class="cls-7" d="M1002.8,196.32c.57,0,.86,0,1.42-.02.91,0,2.05-.54,2.53-1.18,2.11-2.86,3.15-4.27,5.22-7.01.47-.62.11-1.12-.8-1.12-.56,0-.85,0-1.41.01-.91,0-2.04.52-2.51,1.14-2.07,2.77-3.12,4.16-5.23,7.02-.48.64-.13,1.17.79,1.16"/>
  <path class="cls-7" d="M1013.8,183.5c.91,0,2.04-.52,2.5-1.12,8.07-10.61,11.94-15.54,19.37-24.71.43-.53.03-.95-.88-.94-.56,0-.84,0-1.41.02-.91,0-1.99.43-2.42.96-7.43,9.19-11.32,14.11-19.39,24.71-.46.61-.1,1.1.82,1.1.57-.02.85-.02,1.41-.02"/>
  <path class="cls-7" d="M984.99,220.99h1.43c.91,0,2.08-.61,2.59-1.32,5.1-7.22,7.6-10.7,12.49-17.4.49-.67.13-1.21-.79-1.21-.56.01-.85.02-1.42.02-.92,0-2.06.55-2.55,1.22-4.89,6.7-7.39,10.18-12.5,17.41-.5.72-.16,1.3.75,1.29"/>
  <path class="cls-7" d="M1057.3,130.09c-.56,0-.84,0-1.4.02-.9,0-1.95.35-2.32.78-1.68,1.89-2.52,2.86-4.23,4.84-.38.44.04.8.94.8.56,0,.84,0,1.4-.02.9,0,1.95-.37,2.34-.82,1.71-1.97,2.55-2.94,4.22-4.84.39-.42-.05-.77-.95-.77"/>
  <path class="cls-7" d="M1074.71,109.7c-.89,0-1.9.29-2.23.63-5.85,6.08-8.93,9.39-15.41,16.63-.37.42.06.75.96.75.56,0,.84-.01,1.4-.01.89,0,1.94-.34,2.31-.76,6.48-7.24,9.55-10.55,15.39-16.63.33-.34-.13-.62-1.02-.61h-1.4Z"/>
  <path class="cls-7" d="M1039.59,152.86c4.18-5.1,6.23-7.54,10.2-12.21.39-.46-.02-.83-.92-.83-.57.01-.86.01-1.41.01-.91,0-1.97.39-2.36.85-3.98,4.67-6.02,7.11-10.21,12.21-.41.51-.02.91.89.91.56,0,.85,0,1.41-.01.91,0,1.98-.43,2.41-.93"/>
  <path class="cls-7" d="M954.39,245.71c-.57,0-.87,0-1.44.02-.93,0-2.12.65-2.65,1.44-2.16,3.17-3.86,5.68-5.5,8.14.85,1.13,1.68,2.26,2.52,3.39,2.46-3.68,4.64-6.92,7.77-11.54.54-.8.22-1.45-.7-1.45"/>
  <path class="cls-7" d="M1003.66,177.49c-.57,0-.85.01-1.42.01-.92,0-2.03.49-2.48,1.09-2.03,2.62-3.05,3.96-5.11,6.67-.47.61-.11,1.11.8,1.11.57-.01.86-.01,1.43-.02.91,0,2.04-.52,2.51-1.13,2.05-2.71,3.07-4.04,5.1-6.67.45-.59.08-1.07-.83-1.06"/>
  <path class="cls-7" d="M1004.82,174.18c.56,0,.85,0,1.41,0,.91,0,2.02-.49,2.47-1.06,8.25-10.57,12.2-15.45,19.74-24.51.41-.49,0-.89-.9-.87h-1.41c-.9.01-1.98.41-2.38.91-7.56,9.05-11.52,13.94-19.78,24.5-.45.58-.08,1.05.84,1.04"/>
  <path class="cls-7" d="M993.46,190.89c-.57.01-.85.01-1.42.02-.91,0-2.05.52-2.52,1.16-11.68,15.59-17.83,24.11-30.78,42.8-.52.76-.2,1.38.71,1.38.58-.01.86-.01,1.43-.02.93,0,2.11-.63,2.64-1.39,12.93-18.69,19.07-27.2,30.74-42.79.48-.64.11-1.16-.8-1.15"/>
  <path class="cls-7" d="M1049.3,122.77c-.55,0-.84,0-1.39,0-.91,0-1.93.33-2.29.73-1.61,1.77-2.43,2.67-4.08,4.52-.38.42.05.75.96.75.55,0,.84,0,1.39,0,.91,0,1.95-.36,2.32-.77,1.65-1.85,2.46-2.75,4.07-4.53.36-.4-.07-.72-.98-.71"/>
  <path class="cls-7" d="M1053.64,119.82c3.67-3.97,5.45-5.86,8.91-9.45.34-.36-.12-.63-1.02-.62h-1.4c-.89.01-1.9.29-2.23.64-3.46,3.59-5.24,5.48-8.92,9.46-.35.39.09.7.98.7.57,0,.84,0,1.4,0,.9,0,1.93-.33,2.28-.71"/>
  <path class="cls-7" d="M1032.24,144.1c4.05-4.8,6.02-7.09,9.86-11.46.39-.44-.04-.78-.95-.78-.56,0-.84,0-1.4,0-.91,0-1.95.37-2.33.8-3.85,4.38-5.82,6.66-9.88,11.46-.4.47,0,.86.91.86.56-.01.85-.01,1.4-.01.91,0,1.98-.41,2.38-.87"/>
  <path class="cls-7" d="M947.36,230.12c-.57,0-.86,0-1.43.02-.92,0-2.11.62-2.62,1.36-3.22,4.61-5.42,7.76-7.97,11.48.86,1.09,1.7,2.18,2.54,3.25,3.66-5.37,6.1-8.89,10.21-14.76.53-.75.2-1.36-.72-1.36"/>
  <path class="cls-7" d="M970.21,196.54c.57,0,.85,0,1.42-.01.92,0,2.06-.54,2.54-1.18,2.13-2.85,3.18-4.26,5.27-7.02.46-.62.11-1.11-.8-1.11-.56,0-.85,0-1.41,0-.92.02-2.05.53-2.52,1.14-2.09,2.77-3.14,4.16-5.28,7.02-.48.64-.13,1.17.79,1.16"/>
  <path class="cls-7" d="M981.3,183.73c.91-.01,2.05-.51,2.51-1.12,8.13-10.6,12.04-15.53,19.54-24.72.43-.52.02-.94-.88-.94-.56,0-.85,0-1.41.02-.91,0-1.99.44-2.43.95-7.51,9.2-11.42,14.12-19.57,24.73-.47.6-.1,1.09.81,1.09.57,0,.85,0,1.41-.01"/>
  <path class="cls-7" d="M952.25,221.2c.57,0,.86,0,1.43-.01.92-.01,2.09-.6,2.59-1.32,5.15-7.21,7.67-10.69,12.6-17.38.49-.67.15-1.2-.77-1.2-.57,0-.86,0-1.42,0-.91.01-2.07.55-2.56,1.22-4.93,6.7-7.46,10.17-12.61,17.38-.52.73-.18,1.3.74,1.3"/>
  <path class="cls-7" d="M1017.19,135.91c-.39.45.03.82.93.8h1.41c.9-.02,1.96-.39,2.35-.83,1.72-1.98,2.58-2.95,4.26-4.85.38-.43-.05-.78-.95-.77h-1.4c-.91.01-1.95.37-2.34.79-1.68,1.9-2.54,2.87-4.26,4.85"/>
  <path class="cls-7" d="M1025.93,127.89c.55,0,.83,0,1.39-.01.91,0,1.95-.35,2.32-.76,6.53-7.27,9.63-10.58,15.52-16.68.34-.35-.12-.63-1.02-.62-.55,0-.84,0-1.39,0-.89,0-1.9.28-2.24.63-5.89,6.11-9,9.43-15.54,16.69-.37.41.06.75.96.75"/>
  <path class="cls-7" d="M1007.29,153.07c4.22-5.1,6.27-7.54,10.29-12.22.39-.46-.02-.83-.92-.83-.56,0-.84,0-1.41,0-.9.01-1.96.39-2.36.85-4.02,4.68-6.07,7.13-10.3,12.23-.42.51-.02.92.88.92.57,0,.85-.01,1.41-.02.91,0,2-.43,2.41-.94"/>
  <path class="cls-7" d="M962.94,186.6c.57,0,.85-.01,1.42-.01.91,0,2.04-.52,2.52-1.13,2.08-2.72,3.11-4.05,5.15-6.67.46-.59.08-1.07-.82-1.05-.56,0-.85,0-1.42,0-.91,0-2.03.49-2.49,1.09-2.05,2.62-3.07,3.95-5.16,6.67-.47.62-.11,1.12.8,1.11"/>
  <path class="cls-7" d="M972.38,174.41c.56,0,.85,0,1.42,0,.91,0,2.03-.49,2.48-1.06,8.32-10.57,12.3-15.46,19.91-24.53.41-.48.02-.89-.89-.88-.55,0-.84,0-1.41,0-.9.02-1.98.41-2.4.91-7.61,9.07-11.61,13.95-19.94,24.53-.45.57-.08,1.05.83,1.03"/>
  <path class="cls-7" d="M960.91,191.12c-.57,0-.86,0-1.42.01-.91,0-2.05.52-2.53,1.16-11.33,14.99-17.57,23.52-29.64,40.74.79.96,1.57,1.91,2.34,2.86.43-.24.8-.55,1.04-.89,13.04-18.66,19.24-27.17,31-42.75.48-.63.12-1.14-.79-1.14"/>
  <path class="cls-7" d="M1013.54,123.66c-1.62,1.79-2.45,2.69-4.11,4.54-.38.42.05.77.95.76.56,0,.84,0,1.4,0,.9,0,1.95-.36,2.32-.78,1.66-1.84,2.49-2.75,4.11-4.54.37-.4-.07-.71-.96-.71-.57,0-.84,0-1.4.01-.9,0-1.94.33-2.3.72"/>
  <path class="cls-7" d="M1029.55,109.86h-1.4c-.89,0-1.9.29-2.24.64-3.48,3.6-5.28,5.5-8.99,9.49-.36.39.08.7.98.7.56,0,.84,0,1.41,0,.9,0,1.93-.32,2.29-.71,3.71-3.98,5.5-5.89,8.98-9.48.33-.35-.13-.63-1.02-.62"/>
  <path class="cls-7" d="M1007.62,132.06c-.9,0-1.95.36-2.34.8-3.88,4.39-5.87,6.68-9.96,11.47-.41.48,0,.88.9.86.57,0,.84,0,1.41,0,.91,0,1.98-.4,2.38-.88,4.09-4.79,6.08-7.09,9.95-11.47.39-.44-.04-.79-.94-.79-.55,0-.84,0-1.4.01"/>
  <path class="cls-7" d="M968.97,134.67c.56,0,.84,0,1.4,0,.9,0,1.96-.37,2.35-.81,9.2-10.37,13.51-14.98,21.53-23.24.34-.34-.12-.63-1.01-.63-.56,0-.84,0-1.39,0-.9,0-1.91.29-2.25.64-8.03,8.27-12.34,12.88-21.56,23.25-.39.43.03.8.93.79"/>
  <path class="cls-7" d="M954.95,150.92c.56,0,.84,0,1.41-.01.91,0,1.99-.42,2.42-.92,4.21-4.99,6.27-7.38,10.27-11.96.4-.45-.02-.81-.91-.81-.57,0-.84,0-1.41,0-.9.01-1.96.39-2.36.84-4.01,4.57-6.07,6.96-10.29,11.96-.42.49-.02.9.88.9"/>
  <path class="cls-7" d="M930.68,184.76c2.09-2.7,3.13-4.02,5.18-6.63.46-.6.09-1.06-.81-1.06-.57,0-.85,0-1.42.02-.91,0-2.04.48-2.5,1.07-2.06,2.61-3.09,3.94-5.19,6.64-.47.61-.11,1.11.8,1.1.57-.01.84-.01,1.42-.01.91,0,2.04-.51,2.52-1.12"/>
  <path class="cls-7" d="M925.45,189.41c-.57,0-.85.01-1.42.02-.91,0-2.05.52-2.53,1.14-4.85,6.31-7.33,9.59-12.38,16.4-.5.68-.17,1.22.75,1.22.57,0,.86,0,1.42-.02.91,0,2.07-.56,2.58-1.23,5.05-6.81,7.52-10.09,12.36-16.4.49-.63.13-1.13-.79-1.13"/>
  <path class="cls-7" d="M936.97,172.87c.57,0,.85,0,1.42-.01.91,0,2.03-.48,2.47-1.04,4.57-5.74,6.8-8.49,11.16-13.75.43-.52.04-.94-.87-.94-.56,0-.85,0-1.41,0-.91,0-2,.44-2.43.96-4.36,5.27-6.6,8.02-11.18,13.75-.45.57-.08,1.03.83,1.02"/>
  <path class="cls-7" d="M974.77,110.05c-.89,0-1.9.29-2.25.65-5.74,5.9-8.76,9.09-15.11,16.04-.38.4.05.75.95.73.55,0,.84,0,1.4,0,.9,0,1.95-.35,2.33-.77,6.33-6.95,9.36-10.13,15.09-16.02.34-.35-.11-.63-1.01-.63h-1.4"/>
  <path class="cls-7" d="M957.59,129.87c-.56,0-.84,0-1.4,0-.9,0-1.95.36-2.34.79-3.62,4.01-5.47,6.1-9.27,10.46-.41.47,0,.85.9.84.57,0,.85,0,1.41-.02.91,0,1.98-.39,2.38-.86,3.8-4.36,5.65-6.45,9.26-10.46.39-.42-.03-.76-.94-.76"/>
  <path class="cls-7" d="M918.15,174.88c.57,0,.85-.01,1.41-.02.91,0,2.03-.48,2.49-1.06,2.03-2.55,3.04-3.79,5.03-6.25.45-.55.07-1-.84-1-.57,0-.85,0-1.42.02-.91,0-2.02.46-2.46,1.02-1.99,2.46-3,3.71-5.03,6.25-.46.57-.1,1.05.81,1.04"/>
  <path class="cls-7" d="M916.93,178.19c-.56,0-.85,0-1.41.02-.91,0-2.04.48-2.51,1.08-6.13,7.76-10.05,12.83-15.35,19.84.88.94,1.73,1.89,2.6,2.82,6.44-8.57,10.57-13.92,17.48-22.69.47-.59.1-1.07-.81-1.06"/>
  <path class="cls-7" d="M929.49,162.59c.9,0,2.02-.45,2.45-.99,4.43-5.39,6.59-7.97,10.81-12.93.41-.49.02-.88-.89-.87-.56,0-.84,0-1.4,0-.91,0-1.99.41-2.41.9-4.22,4.95-6.38,7.53-10.82,12.93-.45.54-.06.97.85.97.56,0,.84,0,1.41-.02"/>
  <path class="cls-7" d="M950.32,118.68c-.36.39.09.7.98.69h1.4c.9-.01,1.93-.32,2.3-.7,3.12-3.32,4.64-4.89,7.6-7.94.34-.35-.12-.63-1.01-.63-.55,0-.83,0-1.39,0-.89,0-1.91.29-2.25.64-2.97,3.05-4.5,4.62-7.62,7.93"/>
  <path class="cls-7" d="M946.91,122.32c-3.47,3.72-5.24,5.67-8.9,9.73-.38.43.02.79.93.78.56,0,.84,0,1.41-.02.9,0,1.96-.36,2.35-.79,3.64-4.06,5.42-6,8.88-9.72.37-.4-.06-.72-.96-.72-.56,0-.84,0-1.39.02-.91,0-1.95.32-2.31.72"/>
  <path class="cls-7" d="M905.02,176.7c.46-.57.1-1.05-.81-1.04-.57,0-.86,0-1.41.02-.91,0-2.04.48-2.5,1.07-2.07,2.58-3.1,3.89-5.21,6.57-.47.61-.12,1.1.79,1.09.57,0,.85,0,1.42,0,.91-.02,2.05-.52,2.52-1.11,2.11-2.69,3.14-4,5.2-6.59"/>
  <path class="cls-7" d="M894.58,187.89c-.57,0-.85,0-1.42,0-.91,0-2.05.52-2.54,1.14-.4.52-.75.98-1.14,1.47.88.9,1.75,1.81,2.61,2.71,1.03-1.33,2.11-2.73,3.27-4.22.48-.61.12-1.12-.79-1.11"/>
  <path class="cls-7" d="M906.15,171.5c.56,0,.85,0,1.41,0,.91,0,2.04-.47,2.48-1.03,11.21-13.87,16.48-20.1,26.39-31.37.4-.46-.01-.83-.92-.82-.56,0-.84,0-1.4.02-.9,0-1.97.37-2.38.83-9.91,11.28-15.2,17.51-26.41,31.38-.46.56-.09,1.03.82,1.01"/>
  <path class="cls-7" d="M926.26,127.66c.56,0,.84,0,1.41-.01.9,0,1.95-.35,2.32-.76,6.39-6.97,9.44-10.18,15.21-16.09.34-.35-.11-.64-1-.63-.55.01-.84.01-1.39.01-.89,0-1.91.29-2.25.64-5.79,5.93-8.83,9.12-15.23,16.1-.39.41.04.75.94.75"/>
  <path class="cls-7" d="M912.38,141.33c-.4.47,0,.85.9.84.56,0,.84,0,1.4,0,.91-.02,1.98-.39,2.38-.86,3.83-4.37,5.7-6.46,9.35-10.49.38-.42-.04-.77-.93-.77-.56,0-.84,0-1.41,0-.9,0-1.95.36-2.34.79-3.64,4.02-5.51,6.12-9.36,10.49"/>
  <path class="cls-7" d="M894.7,167.78c.45-.54.08-1-.82-.98-.57,0-.86,0-1.42.01-.91,0-2.02.45-2.48,1.01-2,2.46-3.03,3.71-5.08,6.26-.46.58-.09,1.04.82,1.04.56,0,.85,0,1.41,0,.91-.01,2.04-.49,2.5-1.06,2.05-2.55,3.06-3.8,5.07-6.27"/>
  <path class="cls-7" d="M884.47,178.42c-.57.01-.86.01-1.41.02-.91,0-2.05.49-2.52,1.09-.29.36-.53.67-.81,1.02.87.88,1.75,1.77,2.61,2.64.93-1.17,1.9-2.39,2.93-3.69.48-.6.11-1.07-.79-1.07"/>
  <path class="cls-7" d="M895.72,162.83c.57,0,.85,0,1.41-.01.91,0,2.01-.45,2.46-.98,4.46-5.39,6.64-7.98,10.89-12.94.42-.5.03-.89-.87-.89-.57,0-.85.01-1.41.02-.9,0-1.99.41-2.41.9-4.25,4.96-6.44,7.55-10.91,12.95-.45.53-.06.97.84.96"/>
  <path class="cls-7" d="M906.8,133.02c.56,0,.84,0,1.4,0,.9-.01,1.96-.37,2.36-.8,3.68-4.07,5.46-6.02,8.95-9.75.38-.39-.06-.72-.95-.71h-1.4c-.9.01-1.94.34-2.32.73-3.49,3.74-5.29,5.68-8.97,9.75-.39.43.02.79.93.79"/>
  <path class="cls-7" d="M903.33,138.45c-.56.02-.84.02-1.4.02-.91,0-1.97.38-2.38.84-10,11.3-15.32,17.54-26.64,31.41-.45.56-.09,1.02.82,1.02.56,0,.85,0,1.41,0,.91-.01,2.03-.48,2.49-1.04,11.29-13.87,16.62-20.11,26.6-31.41.41-.46,0-.83-.91-.83"/>
  <path class="cls-7" d="M836.18,131.32c-.57,0-.84,0-1.4.01-.9,0-1.96.36-2.36.8-.96,1.04-1.67,1.81-2.39,2.61.88.75,1.75,1.5,2.62,2.24,1.79-1.98,2.68-2.97,4.44-4.88.39-.43-.01-.78-.91-.78"/>
  <path class="cls-7" d="M856.05,110.48h-1.39c-.89,0-1.92.3-2.27.65-6.16,6.25-9.42,9.64-16.28,17.01-.4.42.02.76.92.76.56,0,.84,0,1.4-.01.9,0,1.95-.36,2.34-.77,6.86-7.38,10.11-10.76,16.27-17,.34-.36-.1-.64-1-.63"/>
  <path class="cls-7" d="M828.56,123.86c-.55.01-.84.01-1.4.01-.89,0-1.94.34-2.33.75-1.23,1.31-2.03,2.16-3.04,3.24.77.64,1.54,1.28,2.31,1.92.47-.14.88-.35,1.08-.58,1.75-1.88,2.61-2.8,4.31-4.6.38-.41-.04-.74-.94-.74"/>
  <path class="cls-7" d="M841.46,110.53c-.56,0-.83,0-1.4,0-.89,0-1.91.3-2.27.66-3.64,3.68-5.53,5.62-9.42,9.69-.38.39.05.71.95.71.55,0,.84,0,1.4,0,.9,0,1.95-.33,2.32-.73,3.88-4.07,5.77-6,9.4-9.68.36-.36-.09-.65-.99-.64"/>
  <path class="cls-7" d="M824.08,110.59c-.56,0-.84,0-1.4,0-.9,0-1.91.3-2.27.65-3.3,3.33-5.79,5.86-8.41,8.61.87.7,1.75,1.41,2.61,2.11,3.48-3.66,6.33-6.57,10.46-10.74.35-.36-.1-.64-.99-.64"/>
  <path class="cls-7" d="M809.49,110.65h-1.4c-.89,0-1.91.3-2.27.66-.75.75-1.39,1.4-2.02,2.04.88.69,1.75,1.37,2.62,2.06,1.23-1.26,2.48-2.52,4.06-4.12.36-.36-.09-.65-.98-.64"/>
  <path class="cls-7" d="M1125.31,78.1c-.89,0-1.81.16-2.04.36-5.55,4.63-8.61,7.3-15.29,13.55-.29.27.21.48,1.11.48.55,0,.83,0,1.39-.01.9,0,1.86-.21,2.14-.48,6.68-6.25,9.72-8.91,15.27-13.54.24-.2-.3-.36-1.2-.36h-1.38"/>
  <path class="cls-7" d="M1132.89,72.01c-.89,0-1.79.12-1.99.29-2.09,1.62-3.19,2.49-5.48,4.37-.22.18.32.34,1.21.34h1.38c.9,0,1.81-.14,2.04-.34,2.29-1.87,3.38-2.74,5.47-4.36.21-.17-.35-.29-1.25-.3-.55,0-.82,0-1.38,0"/>
  <path class="cls-7" d="M1145.64,63.75c-.55,0-.83,0-1.38,0-.89,0-1.75.08-1.9.18-.69.47-1.05.72-1.79,1.23-.17.11.43.21,1.31.21.55,0,.83,0,1.38,0,.89,0,1.76-.09,1.93-.2.73-.52,1.09-.76,1.79-1.24.15-.1-.44-.19-1.34-.2"/>
  <path class="cls-7" d="M1150.53,60.55c-.56,0-.83,0-1.39,0-.89,0-1.72.06-1.85.14-1.3.82-2,1.28-3.5,2.28-.15.1.45.19,1.34.19.55,0,.84,0,1.39,0,.89,0,1.74-.07,1.88-.18,1.51-1,2.21-1.46,3.51-2.29.13-.08-.48-.14-1.38-.15"/>
  <path class="cls-7" d="M1142.04,66.25h-1.38c-.89,0-1.76.09-1.93.21-1.75,1.25-2.68,1.93-4.65,3.41-.19.14.38.27,1.27.27h1.39c.89.01,1.77-.11,1.97-.25,1.95-1.47,2.88-2.15,4.64-3.4.18-.12-.41-.23-1.3-.23"/>
  <path class="cls-7" d="M1104.27,81.55c-.89,0-1.82.17-2.07.39-4.2,3.63-6.44,5.63-11.22,10.1-.29.27.21.48,1.11.48h1.38c.89,0,1.86-.22,2.14-.49,4.77-4.47,7.02-6.46,11.21-10.09.25-.21-.28-.39-1.17-.39h-1.39"/>
  <path class="cls-7" d="M1114.55,75.46c.23-.18-.32-.32-1.21-.33h-1.38c-.89,0-1.8.14-2.02.32-2.09,1.7-3.18,2.59-5.45,4.52-.24.2.29.38,1.18.38h1.39c.89,0,1.81-.16,2.06-.37,2.27-1.93,3.36-2.83,5.44-4.52"/>
  <path class="cls-7" d="M1125.02,67.41c.8-.58,1.19-.86,1.96-1.4.16-.12-.42-.22-1.31-.22-.56,0-.83,0-1.39,0-.89,0-1.75.09-1.92.21-.76.54-1.15.82-1.95,1.4-.18.13.39.25,1.29.25.55,0,.83,0,1.38,0,.89,0,1.77-.11,1.95-.24"/>
  <path class="cls-7" d="M1125.24,65.11h1.38c.89.01,1.75-.08,1.92-.2,2.88-2.01,4.17-2.84,6.42-4.29.13-.08-.49-.15-1.39-.16h-1.38c-.9,0-1.73.06-1.85.14-2.26,1.43-3.54,2.28-6.42,4.28-.16.11.43.21,1.32.21"/>
  <path class="cls-7" d="M1115.98,73.04c.89,0,1.8-.14,2-.3,2.12-1.66,3.12-2.42,5.02-3.84.2-.14-.38-.26-1.27-.26h-1.39c-.89,0-1.77.1-1.96.25-1.91,1.42-2.92,2.19-5.03,3.84-.21.16.34.3,1.23.3.55,0,.83,0,1.38,0"/>
  <path class="cls-7" d="M1138.19,57.64c.89,0,1.7-.04,1.8-.09.41-.25.59-.36.97-.58.08-.05-.58-.09-1.48-.09h-1.38c-.9,0-1.69.03-1.78.08-.37.21-.56.34-.96.57-.09.06.56.11,1.45.12h1.38"/>
  <path class="cls-7" d="M1139.93,56.6c.89,0,1.69-.04,1.77-.08,1.32-.79,1.84-1.09,2.55-1.57.05-.04-.66-.06-1.56-.06h-1.39c-.9,0-1.67.02-1.71.06-.7.48-1.21.77-2.54,1.55-.07.05.6.08,1.49.09.55,0,.83,0,1.39,0"/>
  <path class="cls-7" d="M1134.29,60.03c.89,0,1.72-.06,1.84-.13,1.22-.77,1.78-1.11,2.8-1.73.11-.06-.55-.11-1.44-.12h-1.38c-.89,0-1.71.04-1.8.1-1.01.61-1.57.96-2.79,1.71-.12.08.51.15,1.39.16.55,0,.83,0,1.39,0"/>
  <path class="cls-7" d="M1084.52,86.14c-.89,0-1.84.2-2.11.44-2.3,2.07-3.5,3.16-5.97,5.46-.28.27.21.49,1.11.48h1.39c.89,0,1.86-.22,2.14-.48,2.46-2.31,3.66-3.39,5.97-5.46.26-.25-.25-.44-1.14-.44h-1.39Z"/>
  <path class="cls-7" d="M1094.17,78.98h-1.38c-.89,0-1.81.16-2.05.36-2.25,1.9-3.42,2.91-5.86,5.05-.26.23.25.43,1.15.43h1.38c.89,0,1.83-.2,2.09-.43,2.44-2.14,3.61-3.14,5.85-5.05.24-.2-.29-.36-1.18-.36"/>
  <path class="cls-7" d="M1115.13,64.12c.16-.11-.44-.2-1.33-.2h-1.38c-.89,0-1.75.08-1.9.18-.71.48-1.07.73-1.8,1.27-.17.11.42.21,1.3.21.55,0,.84,0,1.39.01.89,0,1.75-.1,1.92-.21.74-.52,1.11-.78,1.8-1.26"/>
  <path class="cls-7" d="M1113.3,63.32c.55,0,.83,0,1.39,0,.89,0,1.74-.08,1.89-.18,2.78-1.88,4-2.65,6.09-3.94.11-.07-.53-.13-1.41-.14-.55,0-.83,0-1.38,0-.89,0-1.71.05-1.83.12-2.09,1.29-3.3,2.06-6.07,3.94-.15.1.45.2,1.34.2"/>
  <path class="cls-7" d="M1097.02,76.6c.89,0,1.8-.14,2.04-.34,5.58-4.55,8.06-6.41,12.4-9.54.17-.13-.4-.24-1.3-.24-.55-.01-.82-.01-1.38-.01-.89,0-1.77.11-1.94.23-4.34,3.13-6.82,4.99-12.4,9.56-.22.19.32.34,1.21.34h1.38"/>
  <path class="cls-7" d="M1125.21,56.67c.89,0,1.69-.04,1.77-.08.34-.2.5-.3.8-.47.07-.04-.6-.08-1.5-.08h-1.39c-.89,0-1.68.03-1.75.07-.3.18-.45.28-.8.48-.07.04.6.08,1.49.09h1.39"/>
  <path class="cls-7" d="M1126.64,55.82c.9,0,1.68-.03,1.74-.07.62-.37.87-.54,1.28-.81.04-.03-.67-.05-1.57-.05h-1.39c-.9,0-1.67.02-1.71.05-.4.27-.65.43-1.27.8-.06.04.62.07,1.52.07.56,0,.83,0,1.39,0"/>
  <path class="cls-7" d="M1121.88,58.68c.89,0,1.7-.04,1.81-.11,1.06-.66,1.55-.94,2.41-1.45.08-.05-.58-.09-1.47-.11-.56,0-.83,0-1.39,0-.89,0-1.69.04-1.78.09-.86.52-1.33.79-2.4,1.45-.11.07.54.12,1.43.12.56,0,.84,0,1.39,0"/>
  <path class="cls-7" d="M1075.05,81.91c.25-.21-.27-.39-1.16-.39h-1.39c-.89,0-1.83.17-2.07.39-4.22,3.65-6.48,5.66-11.29,10.15-.28.27.21.49,1.1.48h1.39c.89,0,1.86-.22,2.14-.49,4.8-4.48,7.05-6.5,11.27-10.14"/>
  <path class="cls-7" d="M1077.36,79.95c2.27-1.93,3.37-2.85,5.47-4.55.22-.18-.32-.32-1.21-.32-.56,0-.83,0-1.39-.01-.89,0-1.8.15-2.02.33-2.1,1.7-3.19,2.61-5.47,4.54-.25.21.29.38,1.18.38h1.38c.89,0,1.82-.17,2.07-.37"/>
  <path class="cls-7" d="M1093.32,67.31c.8-.59,1.19-.87,1.95-1.41.18-.12-.42-.22-1.31-.23h-1.38c-.89,0-1.75.09-1.93.21-.76.54-1.15.82-1.95,1.41-.18.13.4.24,1.29.25h1.38c.89.01,1.76-.1,1.95-.23"/>
  <path class="cls-7" d="M1093.54,64.99c.55,0,.83,0,1.38,0,.89,0,1.75-.08,1.91-.2,2.88-2.02,4.16-2.86,6.39-4.3.13-.07-.5-.15-1.39-.15-.55,0-.83,0-1.39,0-.89,0-1.72.06-1.84.14-2.24,1.44-3.52,2.28-6.39,4.29-.16.12.43.22,1.32.22"/>
  <path class="cls-7" d="M1084.26,72.95c.89.01,1.79-.13,2-.3,2.12-1.67,3.13-2.44,5.04-3.86.19-.14-.39-.26-1.27-.27h-1.38c-.9,0-1.78.11-1.96.25-1.91,1.43-2.92,2.2-5.04,3.86-.21.17.34.31,1.23.31h1.38"/>
  <path class="cls-7" d="M1106.38,57.53c.89,0,1.7-.04,1.78-.1.41-.24.59-.36.95-.56.09-.05-.58-.09-1.48-.1h-1.38c-.89,0-1.69.04-1.77.08-.36.21-.54.33-.95.57-.09.05.57.1,1.46.1.55,0,.83,0,1.39,0"/>
  <path class="cls-7" d="M1108.08,56.52c.89,0,1.68-.04,1.76-.08,1.3-.76,1.78-1.04,2.43-1.49.04-.03-.67-.05-1.57-.05h-1.4c-.89,0-1.66.02-1.7.05-.64.43-1.12.72-2.41,1.48-.07.04.61.07,1.49.08h1.39"/>
  <path class="cls-7" d="M1102.54,59.9c.89,0,1.72-.06,1.84-.14,1.2-.77,1.75-1.1,2.75-1.71.11-.06-.55-.11-1.44-.12h-1.39c-.89,0-1.7.04-1.8.1-.99.61-1.54.95-2.75,1.7-.12.08.51.14,1.41.16h1.38"/>
  <path class="cls-7" d="M1058.98,79.3c-2.27,1.91-3.44,2.93-5.89,5.08-.26.23.25.43,1.14.43h1.39c.89,0,1.84-.2,2.1-.43,2.44-2.15,3.62-3.17,5.88-5.08.24-.2-.3-.37-1.18-.37h-1.39c-.89,0-1.81.16-2.05.37"/>
  <path class="cls-7" d="M1078.31,65.46c.55,0,.83,0,1.39,0,.89,0,1.75-.09,1.92-.21.75-.52,1.11-.77,1.8-1.26.16-.11-.44-.21-1.33-.21-.55,0-.83,0-1.38,0-.89,0-1.75.08-1.9.2-.7.48-1.05.73-1.81,1.26-.16.12.43.22,1.31.22"/>
  <path class="cls-7" d="M1081.58,63.19c.55,0,.83,0,1.38,0,.9,0,1.75-.08,1.9-.19,2.77-1.87,3.97-2.64,6.04-3.93.11-.07-.53-.13-1.42-.13h-1.38c-.9,0-1.71.04-1.82.11-2.06,1.29-3.27,2.05-6.04,3.94-.15.1.45.2,1.34.2"/>
  <path class="cls-7" d="M1065.28,76.55c.89,0,1.81-.15,2.04-.34,5.6-4.58,8.09-6.46,12.43-9.61.18-.13-.41-.23-1.3-.23-.55,0-.83,0-1.39-.02-.89,0-1.76.11-1.93.23-4.34,3.14-6.82,5.02-12.43,9.61-.23.19.31.35,1.2.35h1.39"/>
  <path class="cls-7" d="M1093.36,56.58c.89,0,1.69-.04,1.76-.08.33-.2.49-.29.78-.46.07-.04-.62-.07-1.51-.07-.55,0-.83,0-1.39,0-.89,0-1.68.03-1.74.07-.28.17-.44.26-.77.46-.07.04.59.08,1.49.08.55,0,.83,0,1.39,0"/>
  <path class="cls-7" d="M1094.74,55.77c.89,0,1.67-.03,1.73-.07.6-.36.84-.5,1.21-.75.04-.02-.68-.04-1.57-.04h-1.39c-.91,0-1.66.02-1.7.04-.36.25-.6.39-1.19.75-.06.04.63.07,1.52.07.56,0,.83,0,1.39,0"/>
  <path class="cls-7" d="M1090.09,58.56c.9,0,1.71-.05,1.81-.11,1.05-.65,1.52-.93,2.36-1.43.08-.05-.58-.09-1.47-.09-.55,0-.83,0-1.39-.02-.9,0-1.7.04-1.78.09-.84.5-1.31.79-2.36,1.43-.11.06.54.12,1.43.12.55,0,.83,0,1.38,0"/>
  <path class="cls-7" d="M1056.19,57.08c.89.02,1.69-.03,1.77-.08,1.95-1.17,2.62-1.54,3.38-2.05.03-.02-.68-.04-1.57-.04h-1.4c-.9,0-1.66.02-1.69.04-.74.5-1.41.87-3.35,2.05-.09.05.57.09,1.48.09h1.38"/>
  <path class="cls-7" d="M1052.79,59.19c.89,0,1.71-.05,1.82-.12,1.13-.71,1.64-1.03,2.55-1.58.09-.05-.56-.1-1.46-.1-.55,0-.83,0-1.38,0-.9,0-1.69.04-1.79.09-.91.55-1.42.87-2.54,1.58-.11.07.53.13,1.41.14.55,0,.83,0,1.39,0"/>
  <path class="cls-7" d="M1043.94,65.15c.88,0,1.75-.09,1.92-.21.73-.52,1.08-.77,1.78-1.25.15-.11-.45-.2-1.34-.21-.55,0-.83,0-1.38,0-.89,0-1.75.08-1.91.2-.69.48-1.04.73-1.78,1.25-.17.12.43.23,1.32.23h1.38"/>
  <path class="cls-7" d="M1035.01,69.51c-.2.15.38.28,1.26.28.55,0,.83,0,1.38,0,.89,0,1.78-.12,1.97-.27,1.97-1.5,2.9-2.19,4.64-3.45.17-.12-.41-.23-1.3-.23-.55,0-.84,0-1.38,0-.89,0-1.76.1-1.94.23-1.74,1.26-2.68,1.95-4.64,3.45"/>
  <path class="cls-7" d="M1046.03,62.72h1.38c.89.01,1.74-.07,1.89-.17,1.48-1,2.17-1.46,3.43-2.28.12-.08-.51-.15-1.39-.15h-1.38c-.89,0-1.73.06-1.85.13-1.27.82-1.95,1.27-3.43,2.28-.14.1.46.19,1.35.19"/>
  <path class="cls-7" d="M1040.48,56.26c.89,0,1.68-.03,1.75-.07,1.11-.67,1.54-.91,2.04-1.25.02-.02-.68-.04-1.58-.04h-1.39c-.89,0-1.66.02-1.69.04-.5.34-.9.57-2.01,1.23-.07.05.61.08,1.5.08.56,0,.83,0,1.39,0"/>
  <path class="cls-7" d="M1037.78,57.89c.89,0,1.7-.04,1.79-.1.89-.55,1.29-.79,1.99-1.21.07-.04-.59-.08-1.48-.08-.55,0-.84,0-1.39,0-.9,0-1.68.03-1.76.08-.69.42-1.09.66-1.98,1.2-.09.06.56.12,1.45.12h1.39"/>
  <path class="cls-7" d="M1032.11,61.54h-1.38c-.89-.01-1.73.07-1.88.16-.61.42-.93.64-1.59,1.09-.15.11.45.19,1.34.19.55,0,.83,0,1.38.01.89,0,1.74-.09,1.89-.18.67-.45.98-.68,1.61-1.09.14-.09-.48-.17-1.38-.18"/>
  <path class="cls-7" d="M1018.07,69.46c-.2.14.38.27,1.27.27.55,0,.84,0,1.39,0,.88,0,1.77-.12,1.97-.27,3.43-2.62,4.98-3.73,7.74-5.67.16-.11-.45-.19-1.33-.2-.55,0-.83,0-1.38,0-.89,0-1.75.08-1.91.2-2.76,1.93-4.31,3.05-7.75,5.67"/>
  <path class="cls-7" d="M1031.71,60.89h1.39c.89,0,1.73-.06,1.86-.15,1.31-.86,1.92-1.24,3-1.94.11-.07-.53-.12-1.42-.12-.55,0-.83,0-1.39,0-.89,0-1.71.05-1.82.12-1.09.68-1.69,1.07-3.01,1.93-.13.08.49.16,1.38.17"/>
  <path class="cls-7" d="M1010.36,76.9c-.89,0-1.8.16-2.04.35-1.05.87-1.57,1.31-2.66,2.23-.25.2.29.39,1.18.39h1.39c.89,0,1.82-.17,2.07-.39,1.08-.91,1.61-1.36,2.64-2.22.24-.2-.3-.36-1.19-.36h-1.39"/>
  <path class="cls-7" d="M1003.35,81.46c-4.43,3.82-6.81,5.94-11.9,10.67-.29.27.21.5,1.09.49h1.39c.89,0,1.86-.22,2.15-.5,5.09-4.73,7.46-6.84,11.88-10.66.26-.21-.27-.39-1.16-.4h-1.38c-.89,0-1.83.18-2.07.39"/>
  <path class="cls-7" d="M1010.82,75.18c-.22.19.32.34,1.21.34.55,0,.84.01,1.39.01.89,0,1.8-.15,2.03-.34,2.27-1.84,3.34-2.7,5.39-4.29.21-.16-.36-.29-1.25-.29-.55,0-.83,0-1.38,0-.89,0-1.78.12-1.99.28-2.04,1.59-3.12,2.45-5.39,4.3"/>
  <path class="cls-7" d="M1027.13,55.51c.89,0,1.66-.03,1.72-.05.41-.25.58-.36.82-.52.03-.02-.68-.04-1.58-.04h-1.39c-.89,0-1.65.02-1.68.04-.24.16-.41.27-.81.51-.05.03.64.06,1.54.06h1.39"/>
  <path class="cls-7" d="M1025.04,56.76c.89,0,1.69-.04,1.77-.08.72-.43,1.02-.62,1.55-.93.06-.04-.63-.06-1.53-.06-.55,0-.84,0-1.39,0-.9,0-1.67.03-1.73.06-.52.31-.83.5-1.54.93-.08.05.59.09,1.48.09.55,0,.84,0,1.39,0"/>
  <path class="cls-7" d="M1015.33,63.06c-.56-.02-.83-.02-1.38-.02-.89,0-1.75.09-1.9.19-.68.47-1.03.72-1.75,1.23-.16.11.44.22,1.32.22.55,0,.83,0,1.38,0,.9,0,1.75-.09,1.92-.2.73-.51,1.07-.76,1.75-1.23.15-.11-.46-.19-1.34-.2"/>
  <path class="cls-7" d="M999.94,72.27c-.21.17.34.31,1.23.31h1.39c.89,0,1.79-.13,2-.3,3.89-3.07,5.65-4.39,8.8-6.68.17-.12-.42-.22-1.31-.23h-1.38c-.89,0-1.76.09-1.93.21-3.15,2.29-4.91,3.6-8.8,6.68"/>
  <path class="cls-7" d="M1015.02,62.31c.55,0,.84,0,1.38,0,.9,0,1.74-.08,1.89-.18,3.54-2.4,4.98-3.29,7.2-4.65.09-.06-.56-.11-1.46-.11-.55,0-.84,0-1.39,0-.89,0-1.69.04-1.79.09-2.21,1.36-3.65,2.25-7.18,4.66-.14.1.46.18,1.35.19"/>
  <path class="cls-7" d="M991.52,80.54c-.89,0-1.82.18-2.07.39-1.11.96-1.68,1.45-2.83,2.46-.26.22.26.41,1.15.42h1.39c.89,0,1.83-.2,2.09-.42,1.16-1.02,1.72-1.5,2.83-2.46.25-.21-.28-.39-1.16-.39h-1.39"/>
  <path class="cls-7" d="M984.15,85.57c-2.77,2.48-4.22,3.79-7.22,6.59-.3.27.2.49,1.09.49h1.39c.89,0,1.86-.22,2.15-.5,3-2.79,4.45-4.11,7.21-6.58.27-.23-.24-.43-1.13-.43h-1.39c-.89,0-1.84.2-2.11.43"/>
  <path class="cls-7" d="M992.13,78.65c-.24.2.29.37,1.18.37.55,0,.84,0,1.39,0,.89,0,1.82-.18,2.05-.37,2.43-2.05,3.59-3,5.79-4.78.22-.18-.33-.32-1.22-.32-.55-.01-.83-.01-1.38-.01-.89,0-1.79.14-2.01.32-2.21,1.78-3.37,2.73-5.8,4.78"/>
  <path class="cls-7" d="M1008.61,56.17c.89,0,1.68-.03,1.74-.07,1.08-.64,1.47-.87,1.92-1.18.02-.01-.69-.03-1.59-.03h-1.39c-.9,0-1.66.02-1.68.03-.44.3-.82.52-1.89,1.16-.07.05.61.07,1.51.07.55,0,.84,0,1.38,0"/>
  <path class="cls-7" d="M1005.99,57.78c.89,0,1.7-.04,1.79-.1.88-.55,1.26-.78,1.94-1.18.07-.04-.6-.08-1.5-.08-.55,0-.84,0-1.39,0-.89,0-1.69.03-1.75.07-.68.41-1.07.64-1.93,1.18-.1.05.56.11,1.45.11.55,0,.84,0,1.39,0"/>
  <path class="cls-7" d="M996.88,62.86c.55,0,.83,0,1.38,0,.89,0,1.74-.08,1.89-.18.66-.45.97-.67,1.59-1.09.14-.1-.48-.17-1.37-.18h-1.38c-.89,0-1.73.06-1.87.16-.62.43-.94.64-1.59,1.09-.15.11.45.2,1.35.2"/>
  <path class="cls-7" d="M997.39,63.47h-1.38c-.89,0-1.74.08-1.9.19-2.76,1.95-4.31,3.07-7.74,5.7-.2.16.38.29,1.26.29.55,0,.83,0,1.38,0,.89,0,1.79-.12,1.97-.27,3.44-2.62,4.98-3.75,7.74-5.69.16-.11-.45-.2-1.33-.21"/>
  <path class="cls-7" d="M999.97,60.75c.55,0,.84,0,1.38,0,.89,0,1.74-.06,1.86-.14,1.3-.87,1.9-1.26,2.98-1.93.11-.07-.54-.13-1.42-.14h-1.39c-.89,0-1.7.04-1.81.11-1.07.69-1.67,1.07-2.98,1.94-.12.08.49.15,1.38.16"/>
  <path class="cls-7" d="M976.58,77.2c-1.05.87-1.58,1.31-2.66,2.23-.25.21.27.38,1.16.39h1.39c.89,0,1.82-.17,2.07-.37,1.09-.93,1.62-1.37,2.66-2.24.24-.2-.3-.36-1.19-.36-.55,0-.83,0-1.38,0-.9,0-1.81.15-2.04.36"/>
  <path class="cls-7" d="M971.58,81.43c-4.45,3.84-6.84,5.98-11.96,10.74-.29.27.2.5,1.09.5h1.39c.89,0,1.87-.23,2.15-.5,5.12-4.76,7.52-6.9,11.96-10.73.26-.22-.26-.39-1.15-.39h-1.39c-.89,0-1.82.17-2.08.39"/>
  <path class="cls-7" d="M979.09,75.12c-.23.18.31.34,1.21.34h1.38c.89.01,1.8-.14,2.03-.33,2.27-1.86,3.36-2.71,5.41-4.31.2-.16-.37-.29-1.25-.3h-1.39c-.89,0-1.78.12-1.99.29-2.05,1.6-3.14,2.46-5.41,4.32"/>
  <path class="cls-7" d="M993.21,56.66c.89,0,1.69-.03,1.76-.08.7-.42.99-.6,1.49-.89.06-.04-.64-.06-1.53-.06h-1.39c-.89,0-1.67.02-1.72.05-.5.3-.79.47-1.49.9-.08.04.59.08,1.49.08.55,0,.83,0,1.39,0"/>
  <path class="cls-7" d="M979.91,64.57h1.38c.89,0,1.75-.09,1.91-.2.73-.52,1.07-.77,1.75-1.24.16-.11-.46-.2-1.34-.2-.55,0-.83,0-1.38,0-.89,0-1.73.08-1.89.19-.68.48-1.03.72-1.75,1.23-.16.12.43.21,1.32.23"/>
  <path class="cls-7" d="M970.83,72.5c.9,0,1.8-.14,2-.3,3.9-3.09,5.67-4.41,8.81-6.71.17-.13-.42-.23-1.31-.23-.55,0-.83,0-1.38,0-.89,0-1.75.1-1.93.23-3.14,2.29-4.91,3.61-8.8,6.71-.21.17.34.31,1.23.31.55,0,.83,0,1.38,0"/>
  <path class="cls-7" d="M983.3,62.18c.55.01.83.01,1.39.01.89,0,1.74-.07,1.88-.18,3.52-2.41,4.94-3.3,7.11-4.64.09-.06-.57-.11-1.46-.11-.55,0-.83,0-1.38,0-.9,0-1.69.04-1.78.1-2.17,1.33-3.59,2.22-7.11,4.63-.15.1.46.18,1.35.18"/>
  <path class="cls-7" d="M957.37,83.79c.9,0,1.84-.18,2.1-.41,1.16-1.02,1.73-1.52,2.84-2.47.25-.21-.27-.39-1.16-.39-.55,0-.83,0-1.38,0-.9,0-1.82.17-2.08.39-1.12.96-1.68,1.45-2.84,2.47-.26.23.25.42,1.14.42h1.38"/>
  <path class="cls-7" d="M947.57,92.68c.89,0,1.86-.22,2.16-.5,3.02-2.81,4.48-4.12,7.27-6.62.27-.24-.24-.43-1.13-.43h-1.39c-.89,0-1.84.19-2.11.43-2.79,2.49-4.24,3.8-7.27,6.62-.29.28.2.5,1.09.5h1.39"/>
  <path class="cls-7" d="M962.94,78.98c.89,0,1.82-.16,2.07-.37,2.44-2.06,3.6-3.02,5.82-4.8.22-.18-.33-.32-1.22-.33h-1.38c-.89,0-1.8.14-2.02.31-2.22,1.79-3.38,2.75-5.81,4.81-.25.2.28.37,1.17.37h1.38"/>
  <path class="cls-7" d="M891.3,92.75c.89,0,1.87-.23,2.16-.51,6.99-6.48,10.17-9.26,15.89-14.09.23-.2-.29-.37-1.18-.37h-1.39c-.89-.01-1.81.16-2.05.36-5.72,4.83-8.91,7.62-15.9,14.1-.3.27.19.5,1.08.5h1.39"/>
  <path class="cls-7" d="M912.56,71.73c-2.12,1.69-3.25,2.59-5.61,4.55-.23.2.3.36,1.2.36.56,0,.84,0,1.39,0,.89,0,1.8-.15,2.05-.36,2.35-1.95,3.47-2.86,5.6-4.55.21-.17-.34-.3-1.24-.3-.55,0-.83,0-1.38,0-.89,0-1.79.12-2,.3"/>
  <path class="cls-7" d="M924.99,64.55c.89,0,1.75-.09,1.92-.21.72-.52,1.07-.77,1.76-1.26.14-.11-.45-.2-1.34-.21-.55,0-.84,0-1.39,0-.88,0-1.74.08-1.89.2-.68.48-1.03.73-1.75,1.26-.16.12.43.22,1.32.22.55,0,.83,0,1.38,0"/>
  <path class="cls-7" d="M926.79,62.27c.55,0,.83,0,1.38,0,.9,0,1.75-.07,1.89-.18,1.46-1.02,2.13-1.47,3.35-2.29.12-.08-.51-.15-1.4-.15-.56,0-.83,0-1.39,0-.88,0-1.71.06-1.84.14-1.22.82-1.89,1.27-3.34,2.29-.14.1.45.2,1.35.2"/>
  <path class="cls-7" d="M915.79,69.19c-.2.16.38.28,1.26.29.55,0,.83,0,1.38,0,.89,0,1.77-.13,1.98-.27,1.98-1.54,2.91-2.23,4.65-3.53.18-.12-.41-.24-1.3-.24h-1.38c-.9,0-1.76.1-1.93.22-1.75,1.29-2.68,2-4.66,3.52"/>
  <path class="cls-7" d="M874.3,92.77c.89,0,1.86-.23,2.16-.51,5-4.62,7.33-6.71,11.68-10.48.26-.23-.25-.41-1.15-.41-.56,0-.84,0-1.39,0-.89,0-1.84.18-2.09.41-4.35,3.77-6.68,5.86-11.68,10.5-.3.27.19.5,1.08.5h1.4"/>
  <path class="cls-7" d="M888.44,80.12c.89,0,1.83-.18,2.07-.39,2.34-2.01,3.47-2.95,5.61-4.71.23-.19-.31-.34-1.2-.34-.55,0-.83,0-1.38,0-.89,0-1.8.15-2.03.34-2.14,1.77-3.27,2.7-5.61,4.71-.25.21.27.39,1.16.39h1.38"/>
  <path class="cls-7" d="M907.39,64.97c-.55,0-.83,0-1.38,0-.89,0-1.76.09-1.93.22-.76.56-1.15.85-1.95,1.46-.18.13.4.25,1.29.25h1.38c.89,0,1.76-.1,1.95-.24.8-.6,1.19-.89,1.94-1.44.17-.13-.41-.23-1.3-.24"/>
  <path class="cls-7" d="M906.95,64.28h1.39c.89,0,1.75-.09,1.91-.21,2.84-2.06,4.08-2.91,6.21-4.34.12-.08-.51-.14-1.4-.14-.55-.01-.83-.01-1.38-.01-.89,0-1.71.06-1.84.14-2.12,1.41-3.36,2.27-6.21,4.33-.16.12.43.22,1.32.23"/>
  <path class="cls-7" d="M900.11,68.17c-1.91,1.48-2.94,2.28-5.09,4-.21.17.34.32,1.23.32h1.38c.9,0,1.8-.14,2.01-.31,2.16-1.73,3.18-2.52,5.1-4,.2-.14-.39-.27-1.27-.27h-1.38c-.89,0-1.77.12-1.97.26"/>
  <path class="cls-7" d="M919.22,56.89c.9,0,1.7-.04,1.77-.08.35-.21.51-.32.81-.5.06-.04-.61-.07-1.5-.08-.55,0-.83,0-1.39,0-.89,0-1.68.02-1.74.07-.3.18-.47.28-.81.5-.07.05.59.09,1.48.1h1.38"/>
  <path class="cls-7" d="M920.66,56.01c.89,0,1.67-.03,1.73-.06,1.04-.63,1.38-.82,1.7-1.03.02-.02-.71-.02-1.61-.02h-1.39c-.9,0-1.64,0-1.66.02-.31.2-.64.39-1.67,1.02-.05.03.62.06,1.52.07.56,0,.83,0,1.39,0"/>
  <path class="cls-7" d="M915.73,59.14c.89,0,1.71-.05,1.82-.12,1.12-.74,1.64-1.07,2.53-1.63.09-.05-.57-.11-1.46-.11-.55,0-.84,0-1.39,0-.89,0-1.69.04-1.77.1-.89.56-1.4.88-2.53,1.62-.11.07.52.14,1.41.14.56,0,.84,0,1.39,0"/>
  <path class="cls-7" d="M865.66,86.15c-.89,0-1.84.2-2.12.45-2.4,2.16-3.65,3.29-6.23,5.68-.29.27.19.5,1.08.5h1.39c.89,0,1.87-.23,2.17-.5,2.58-2.39,3.82-3.52,6.23-5.68.27-.25-.23-.45-1.12-.45h-1.39Z"/>
  <path class="cls-7" d="M875.61,78.68h-1.38c-.9,0-1.83.17-2.07.38-2.32,1.98-3.54,3.03-6.06,5.27-.27.23.23.43,1.12.43h1.38c.9,0,1.85-.2,2.12-.43,2.52-2.24,3.74-3.29,6.07-5.26.25-.21-.28-.39-1.18-.39"/>
  <path class="cls-7" d="M891.73,64.76c.56,0,.84,0,1.39,0,.89,0,1.75-.1,1.92-.22.74-.54,1.09-.79,1.79-1.29.15-.11-.45-.21-1.34-.21h-1.38c-.9,0-1.75.09-1.9.2-.7.49-1.05.75-1.78,1.3-.17.12.42.22,1.3.22"/>
  <path class="cls-7" d="M894.96,62.43c.56,0,.83,0,1.39,0,.89,0,1.74-.08,1.88-.18,2.7-1.91,3.86-2.68,5.76-3.92.1-.07-.54-.12-1.43-.12-.55,0-.83,0-1.38,0-.89,0-1.71.04-1.81.11-1.91,1.23-3.05,2-5.75,3.91-.16.1.46.2,1.34.2"/>
  <path class="cls-7" d="M878.54,76.22c.89,0,1.81-.16,2.05-.35,5.73-4.76,8.25-6.71,12.59-9.94.17-.13-.41-.25-1.3-.25-.55,0-.84,0-1.39,0-.89,0-1.76.1-1.93.23-4.33,3.23-6.85,5.19-12.59,9.95-.23.2.31.36,1.2.36h1.38"/>
  <path class="cls-7" d="M905.98,56.06c.89,0,1.67-.02,1.73-.06.27-.16.39-.23.61-.37.05-.03-.64-.05-1.54-.06h-1.39c-.89,0-1.67.02-1.71.05-.22.12-.34.2-.61.36-.05.04.62.07,1.52.08h1.39"/>
  <path class="cls-7" d="M907.05,55.42c.89,0,1.66-.02,1.7-.04.42-.26.57-.35.73-.46.02-.01-.71-.02-1.6-.02h-1.4c-.89,0-1.64,0-1.66.02-.16.11-.31.19-.73.45-.04.02.66.04,1.55.04.56,0,.83,0,1.39,0"/>
  <path class="cls-7" d="M903.12,57.85c.89,0,1.71-.04,1.8-.11.95-.61,1.36-.87,2.08-1.3.07-.04-.61-.08-1.5-.08-.56,0-.83,0-1.39,0-.89,0-1.68.04-1.75.07-.71.43-1.12.7-2.08,1.3-.09.06.56.12,1.45.12.55,0,.83,0,1.39,0"/>
  <path class="cls-7" d="M856.38,81.76c.26-.23-.26-.41-1.15-.41-.56,0-.83,0-1.38,0-.89,0-1.83.19-2.09.41-4.37,3.8-6.72,5.9-11.75,10.55-.3.29.18.51,1.07.51h1.39c.89,0,1.87-.24,2.17-.51,5.02-4.65,7.38-6.75,11.74-10.54"/>
  <path class="cls-7" d="M858.76,79.7c2.36-2.01,3.48-2.96,5.64-4.73.23-.19-.31-.34-1.21-.34h-1.38c-.9-.01-1.81.14-2.04.34-2.15,1.77-3.28,2.72-5.64,4.74-.25.21.27.39,1.16.39h1.38c.89,0,1.83-.18,2.08-.39"/>
  <path class="cls-7" d="M875.05,66.54c.8-.61,1.19-.9,1.94-1.46.17-.13-.42-.23-1.3-.23-.56-.02-.83-.02-1.39-.02-.89,0-1.75.1-1.92.23-.75.56-1.14.85-1.95,1.46-.18.14.39.25,1.28.26h1.39c.89,0,1.77-.11,1.95-.24"/>
  <path class="cls-7" d="M875.24,64.15c.55,0,.83,0,1.39,0,.89,0,1.75-.09,1.91-.21,2.84-2.06,4.07-2.91,6.17-4.34.12-.08-.51-.15-1.4-.15h-1.39c-.89-.02-1.71.06-1.84.14-2.1,1.42-3.33,2.27-6.17,4.33-.16.12.43.22,1.32.22"/>
  <path class="cls-7" d="M865.9,72.42c.89,0,1.79-.14,2-.32,2.17-1.73,3.2-2.54,5.11-4.02.2-.15-.38-.27-1.27-.27h-1.38c-.89,0-1.77.11-1.96.26-1.93,1.47-2.95,2.27-5.11,4.01-.22.18.33.32,1.22.32.55,0,.83,0,1.38,0"/>
  <path class="cls-7" d="M887.41,56.79c.89,0,1.68-.04,1.76-.09.34-.21.5-.3.79-.48.07-.05-.61-.07-1.5-.07-.55,0-.83,0-1.39,0-.89-.01-1.67.02-1.74.07-.29.18-.45.27-.79.48-.07.05.59.09,1.49.1h1.38"/>
  <path class="cls-7" d="M888.81,55.93c.89,0,1.67-.02,1.72-.05,1-.61,1.32-.79,1.57-.95.01-.01-.72-.02-1.61-.02h-1.39c-.89,0-1.64,0-1.66.02-.24.16-.55.34-1.54.94-.05.04.63.06,1.52.07h1.4"/>
  <path class="cls-7" d="M883.97,59.02c.89,0,1.71-.05,1.82-.13,1.11-.74,1.62-1.07,2.49-1.62.09-.05-.58-.1-1.46-.1-.55,0-.83,0-1.39,0-.89,0-1.7.04-1.78.09-.88.56-1.36.88-2.48,1.62-.11.07.52.14,1.41.14.55,0,.83,0,1.39,0"/>
  <path class="cls-7" d="M834.3,84.32c-.27.24.23.44,1.13.44h1.38c.9,0,1.85-.2,2.12-.44,2.54-2.25,3.75-3.3,6.09-5.29.25-.21-.27-.39-1.17-.39h-1.39c-.89,0-1.82.16-2.07.39-2.33,1.98-3.55,3.04-6.1,5.29"/>
  <path class="cls-7" d="M860.03,64.64c.55,0,.83,0,1.38,0,.89,0,1.75-.11,1.92-.22.74-.54,1.09-.8,1.78-1.3.16-.11-.45-.2-1.34-.21-.55,0-.83,0-1.38,0-.89,0-1.74.08-1.89.2-.69.5-1.05.75-1.78,1.3-.16.12.43.22,1.32.23"/>
  <path class="cls-7" d="M863.25,62.3c.55,0,.83,0,1.38,0,.89,0,1.74-.07,1.88-.18,2.7-1.92,3.84-2.68,5.71-3.91.11-.07-.54-.12-1.43-.13-.56,0-.84,0-1.39,0-.89,0-1.7.05-1.81.12-1.86,1.23-3.01,1.99-5.7,3.91-.14.1.46.18,1.36.19"/>
  <path class="cls-7" d="M846.8,76.16c.9,0,1.81-.16,2.05-.35,5.75-4.79,8.28-6.75,12.61-10,.18-.13-.41-.24-1.3-.25-.55,0-.83,0-1.38,0-.89,0-1.76.1-1.94.24-4.33,3.25-6.86,5.21-12.62,10-.24.2.3.36,1.19.36h1.38"/>
  <path class="cls-7" d="M874.13,55.97c.89,0,1.68-.03,1.73-.06.25-.16.38-.22.58-.35.05-.03-.65-.05-1.54-.05-.55,0-.83,0-1.39,0-.89,0-1.67.02-1.71.05-.2.12-.32.2-.58.35-.06.03.62.07,1.52.07.56,0,.84,0,1.39,0"/>
  <path class="cls-7" d="M875.14,55.36c.9,0,1.66-.02,1.7-.04.39-.23.52-.31.66-.4.02-.01-.71-.02-1.61-.02h-1.39c-.9,0-1.64,0-1.65.02-.13.09-.26.16-.65.4-.04.02.66.04,1.56.04h1.39"/>
  <path class="cls-7" d="M871.35,57.73c.89,0,1.7-.04,1.78-.11.94-.6,1.35-.86,2.04-1.29.06-.05-.61-.08-1.5-.09h-1.39c-.89,0-1.68.03-1.75.07-.68.43-1.09.68-2.02,1.28-.09.06.56.12,1.45.12h1.39"/>
  <path class="cls-7" d="M837.15,56.37c.89,0,1.68-.03,1.75-.07,1.6-1,2.06-1.25,2.28-1.39,0,0-.72,0-1.62,0h-1.39c-.89,0-1.63,0-1.64,0-.2.14-.65.39-2.26,1.38-.06.04.61.09,1.5.09h1.39"/>
  <path class="cls-7" d="M834.15,58.32c.89,0,1.7-.05,1.81-.12,1.03-.69,1.48-.97,2.26-1.47.08-.05-.59-.09-1.48-.1h-1.39c-.89,0-1.68.03-1.76.08-.77.49-1.22.79-2.25,1.46-.11.07.54.13,1.43.14.56,0,.84,0,1.39,0"/>
  <path class="cls-7" d="M824.27,64.32h1.38c.89,0,1.75-.1,1.92-.21.73-.54,1.07-.79,1.75-1.29.15-.11-.45-.2-1.34-.2-.55,0-.83,0-1.38,0-.89,0-1.74.08-1.89.19-.68.5-1.03.76-1.75,1.29-.17.12.43.22,1.32.23"/>
  <path class="cls-7" d="M823.31,65.03c-.89,0-1.76.1-1.93.23-1.75,1.31-2.68,2.02-4.66,3.58-.2.16.36.29,1.25.29h1.39c.88,0,1.77-.12,1.97-.28,1.99-1.55,2.92-2.27,4.66-3.57.17-.13-.41-.24-1.3-.24-.55,0-.83,0-1.38,0"/>
  <path class="cls-7" d="M827.67,61.82c.55.02.83.02,1.38.02.9,0,1.74-.08,1.89-.18,1.43-1.02,2.09-1.48,3.27-2.29.12-.08-.52-.15-1.41-.15-.55,0-.84,0-1.39,0-.89,0-1.71.06-1.82.14-1.19.81-1.84,1.27-3.27,2.29-.15.1.46.19,1.35.19"/>
  <path class="cls-7" d="M821.17,55.69c.89,0,1.67-.02,1.71-.05.84-.51,1.09-.65,1.2-.73.01,0-.72,0-1.62,0h-1.39c-.89,0-1.63,0-1.64,0-.12.08-.35.2-1.18.72-.05.03.64.05,1.53.05.56,0,.84,0,1.39,0"/>
  <path class="cls-7" d="M818.94,57.09c.89,0,1.7-.04,1.77-.09.78-.5,1.12-.71,1.67-1.05.06-.03-.62-.06-1.52-.07h-1.39c-.89,0-1.67.02-1.72.06-.56.34-.89.55-1.66,1.05-.09.05.57.09,1.47.11h1.38"/>
  <path class="cls-7" d="M810.26,62.11c.56,0,.83,0,1.39,0,.89,0,1.74-.08,1.88-.19.64-.46.95-.69,1.55-1.11.13-.09-.49-.18-1.38-.18-.56,0-.83,0-1.38,0-.89,0-1.73.07-1.86.16-.6.42-.9.64-1.55,1.11-.14.11.46.19,1.35.2"/>
  <path class="cls-7" d="M809.41,62.72c-.88,0-1.74.09-1.89.2-2.71,1.98-4.26,3.14-7.72,5.86-.2.16.37.29,1.25.29.56,0,.83,0,1.38,0,.89,0,1.79-.12,1.98-.27,3.46-2.72,5.01-3.88,7.73-5.86.14-.12-.46-.21-1.35-.21-.55,0-.83,0-1.38,0"/>
  <path class="cls-7" d="M813.26,59.98c.55,0,.83,0,1.38,0,.89,0,1.72-.06,1.84-.14,1.25-.87,1.8-1.24,2.8-1.91.11-.06-.55-.12-1.45-.12-.55,0-.82,0-1.38,0-.9,0-1.71.04-1.8.11-.99.66-1.55,1.04-2.79,1.89-.12.09.5.16,1.39.17"/>
  <path class="cls-7" d="M791.87,76.54c-.89,0-1.81.16-2.05.36-1.07.9-1.62,1.36-2.74,2.32-.25.21.27.39,1.16.39h1.38c.89,0,1.83-.18,2.08-.39,1.12-.95,1.66-1.41,2.73-2.31.24-.21-.29-.37-1.18-.37-.56,0-.83,0-1.39,0"/>
  <path class="cls-7" d="M786.78,80.87c-.9,0-1.83.18-2.09.41-4.09,3.55-6.52,5.7-10.79,9.62.82.58,1.63,1.17,2.44,1.75.26-.09.48-.18.6-.29,5.32-4.91,7.79-7.11,12.37-11.08.27-.23-.25-.41-1.14-.41h-1.38"/>
  <path class="cls-7" d="M799.89,69.98c-.89,0-1.78.12-1.99.3-2.08,1.65-3.18,2.54-5.51,4.47-.23.19.3.35,1.2.35.55,0,.83,0,1.38,0,.89,0,1.81-.16,2.04-.34,2.32-1.93,3.43-2.81,5.51-4.47.2-.17-.35-.3-1.24-.3h-1.39"/>
  <path class="cls-7" d="M807.45,55.16c.9,0,1.65-.02,1.69-.03.24-.14.3-.19.36-.22,0,0-.73,0-1.62,0h-1.4c-.89,0-1.63,0-1.64,0-.04.02-.11.07-.35.21-.02.02.68.04,1.57.04.56,0,.84,0,1.39,0"/>
  <path class="cls-7" d="M805.94,56.09c.89,0,1.67-.04,1.73-.07.57-.36.81-.5,1.16-.72.03-.02-.67-.04-1.57-.04-.55,0-.83,0-1.38,0-.9,0-1.66.02-1.7.04-.34.21-.57.35-1.15.7-.06.04.61.07,1.51.08.56,0,.84,0,1.39,0"/>
  <path class="cls-7" d="M793.33,63.85c.55,0,.83,0,1.38,0,.88,0,1.75-.09,1.92-.21.71-.53,1.05-.79,1.72-1.27.15-.11-.46-.2-1.34-.2h-1.39c-.89,0-1.74.08-1.88.18-.67.49-1,.74-1.72,1.27-.16.12.43.21,1.32.22"/>
  <path class="cls-7" d="M786.21,71.71c3.96-3.2,5.74-4.56,8.87-6.92.17-.12-.42-.23-1.31-.23-.55,0-.83,0-1.38-.02-.89,0-1.75.11-1.93.23-3.12,2.36-4.91,3.73-8.87,6.93-.21.17.34.32,1.23.32.55,0,.83,0,1.38,0,.89,0,1.79-.14,2.01-.32"/>
  <path class="cls-7" d="M796.67,61.41c.55.01.83.01,1.38.01.89,0,1.73-.07,1.88-.18,3.42-2.44,4.75-3.31,6.66-4.53.08-.05-.59-.09-1.49-.09h-1.38c-.89-.02-1.69.02-1.75.07-1.91,1.22-3.24,2.09-6.65,4.53-.14.1.48.18,1.37.18"/>
  <path class="cls-7" d="M774.29,80.34h-1.39c-.89-.01-1.83.18-2.09.4-1.14.99-1.73,1.5-2.93,2.55-.27.24.25.45,1.13.45h1.39c.89,0,1.84-.2,2.11-.43,1.2-1.05,1.79-1.57,2.93-2.56.26-.22-.26-.4-1.15-.4"/>
  <path class="cls-7" d="M767.44,85.11c-.5,0-1.01.06-1.42.16.79.56,1.59,1.11,2.38,1.67.48-.44.97-.87,1.54-1.38.28-.25-.22-.45-1.11-.45h-1.39Z"/>
  <path class="cls-7" d="M776.14,78.75c.89,0,1.82-.17,2.07-.38,2.5-2.14,3.69-3.13,5.95-4.98.22-.18-.32-.33-1.21-.34h-1.39c-.89,0-1.8.14-2.02.33-2.26,1.86-3.45,2.85-5.96,4.97-.25.21.27.39,1.16.39h1.39"/>
  <path class="cls-7" d="M789.32,55.61c.89,0,1.66-.02,1.72-.05.79-.49,1.01-.61,1.07-.65,0,0-.72,0-1.62,0h-1.39c-.9,0-1.64,0-1.64,0-.06.04-.27.16-1.06.64-.05.03.64.05,1.54.06.55,0,.83,0,1.39,0"/>
  <path class="cls-7" d="M787.16,56.98c.89,0,1.69-.04,1.77-.09.76-.5,1.08-.7,1.62-1.04.06-.04-.63-.07-1.52-.07-.56,0-.84,0-1.39,0-.89-.01-1.67.02-1.73.05-.52.33-.85.54-1.61,1.04-.07.06.58.1,1.48.1.55,0,.83,0,1.39,0"/>
  <path class="cls-7" d="M778.55,61.97c.55,0,.83,0,1.38,0,.89,0,1.74-.08,1.89-.18.64-.47.95-.68,1.54-1.1.13-.09-.49-.18-1.38-.18-.56,0-.83,0-1.39,0-.89,0-1.73.07-1.86.16-.59.42-.91.64-1.55,1.11-.14.1.46.19,1.36.19"/>
  <path class="cls-7" d="M779.08,62.61c-.55,0-.82,0-1.38,0-.89,0-1.74.08-1.89.19-2.71,1.99-4.25,3.16-7.72,5.89-.2.15.37.29,1.25.29.56,0,.83,0,1.39,0,.89,0,1.78-.12,1.98-.28,3.47-2.73,5.02-3.9,7.72-5.89.15-.11-.46-.2-1.34-.21"/>
  <path class="cls-7" d="M781.52,59.85c.55,0,.83,0,1.38,0,.9,0,1.73-.06,1.85-.15,1.23-.86,1.78-1.24,2.76-1.89.1-.07-.55-.12-1.45-.12-.55-.01-.83-.01-1.38-.02-.89,0-1.7.05-1.8.12-.97.65-1.52,1.03-2.76,1.89-.12.08.5.16,1.4.16"/>
  <path class="cls-7" d="M760.14,76.48c-.9,0-1.82.16-2.06.37-.73.62-1.28,1.08-1.87,1.6.55.37,1.12.75,1.67,1.13.89,0,1.83-.18,2.08-.39,1.12-.96,1.66-1.43,2.75-2.33.23-.21-.3-.37-1.19-.37h-1.38"/>
  <path class="cls-7" d="M769.57,69.89h-1.38c-.89,0-1.78.13-1.99.3-2.09,1.66-3.19,2.55-5.52,4.49-.23.19.3.36,1.19.36.55,0,.83,0,1.38,0,.89,0,1.81-.16,2.04-.35,2.34-1.93,3.44-2.83,5.52-4.49.21-.17-.35-.3-1.24-.31"/>
  <path class="cls-7" d="M774.11,55.98c.89,0,1.67-.02,1.73-.06.55-.35.77-.49,1.09-.68.04-.02-.67-.04-1.56-.04h-1.4c-.89,0-1.65.01-1.68.03-.32.2-.54.33-1.09.67-.06.04.62.07,1.52.07.55,0,.83,0,1.38,0"/>
  <path class="cls-7" d="M761.62,63.73h1.38c.88,0,1.75-.09,1.91-.21.71-.53,1.05-.78,1.71-1.26.15-.12-.46-.21-1.34-.21h-1.38c-.89-.01-1.74.08-1.89.18-.66.48-1,.73-1.72,1.27-.16.12.44.22,1.33.22"/>
  <path class="cls-7" d="M762.07,64.44c-.55,0-.84,0-1.39,0-.89,0-1.75.09-1.92.22-3.13,2.36-4.91,3.74-8.88,6.97-.21.17.34.32,1.22.32.55,0,.83,0,1.39,0,.89,0,1.79-.14,2.02-.32,3.96-3.21,5.75-4.59,8.87-6.95.18-.13-.42-.24-1.3-.24"/>
  <path class="cls-7" d="M764.95,61.29c.55,0,.83,0,1.38,0,.89,0,1.73-.07,1.87-.17,3.4-2.44,4.73-3.3,6.58-4.52.07-.05-.6-.09-1.49-.1h-1.39c-.89,0-1.68.04-1.75.08-1.86,1.2-3.17,2.07-6.57,4.52-.13.1.48.18,1.37.19"/>
  <path class="cls-7" d="M749.84,72.98c-.55,0-1.08.06-1.48.14.8.54,1.57,1.08,2.36,1.61.52-.43,1.08-.89,1.71-1.41.22-.19-.31-.34-1.21-.34-.55,0-.83,0-1.39,0"/>
  <path class="cls-13" d="M1049.9,334.88c-9.31,8.96-18.57,18.16-27.74,27.61,9.33-9.46,18.59-18.66,27.74-27.61"/>
  <path class="cls-13" d="M1347.41,99.16c-58.43,35.37-168.76,109.98-297.5,235.73,127.14-122.39,263.91-198.83,311.02-222.15-4.71-3.58-9.37-8.02-13.52-13.58"/>
  <path class="cls-13" d="M1016.8,365.92h0c154.5-195.28,272.99-263.94,320.62-285.57-2.07-5.82-3.59-12.39-4.41-19.75-61.01,41.63-197.05,144.5-316.21,305.32"/>
  <path class="cls-13" d="M992.08,362.49c-102.87-129.92-269.53-232.44-361.32-282.75-.63,7.09-1.67,13.49-2.93,19.2,80.04,38.04,242.6,125.92,364.25,263.55"/>
  <path class="cls-13" d="M628.8,33.84c1.06,6.43,1.76,12.57,2.17,18.42,73.83,42.95,267.71,164.74,367.21,311.95-83.84-142.59-285.53-278.11-369.38-330.36"/>
  <path class="cls-13" d="M1049.9,334.88c-9.31,8.96-18.57,18.16-27.74,27.61,9.33-9.46,18.59-18.66,27.74-27.61"/>
</svg>